<svg xmlns="http://www.w3.org/2000/svg">

  <symbol id="search" viewBox="0 0 21 21" fill="none">
    <ellipse cx="9.76663" cy="9.63009" rx="8.98856" ry="8.88424" stroke-width="1.5" stroke-linecap="round" stroke-linejoin="round"/>
    <path d="M16.0184 16.2708L19.5424 19.7448" stroke-width="1.5" stroke-linecap="round" stroke-linejoin="round"/>
  </symbol>

  <symbol id="cart" viewBox="0 0 21 20" fill="none">
    <path d="M1 1.17578L3.08 1.5316L4.04301 12.8715C4.12001 13.7976 4.90301 14.5082 5.84301 14.5053H16.752C17.649 14.5072 18.41 13.8549 18.537 12.9772L19.486 6.49532C19.592 5.77083 19.083 5.09872 18.351 4.99395C18.287 4.98505 3.414 4.98011 3.414 4.98011" stroke-width="1.5" stroke-linecap="round" stroke-linejoin="round"/>
    <path d="M12.375 8.63337H15.1479" stroke-width="1.5" stroke-linecap="round" stroke-linejoin="round"/>
    <path fill-rule="evenodd" clip-rule="evenodd" d="M5.4043 17.9316C5.70527 17.9316 5.94824 18.1729 5.94824 18.4696C5.94824 18.7673 5.70527 19.0085 5.4043 19.0085C5.10333 19.0085 4.86035 18.7673 4.86035 18.4696C4.86035 18.1729 5.10333 17.9316 5.4043 17.9316Z" stroke-width="1.5" stroke-linecap="round" stroke-linejoin="round"/>
    <path fill-rule="evenodd" clip-rule="evenodd" d="M16.6846 17.9316C16.9856 17.9316 17.2296 18.1729 17.2296 18.4696C17.2296 18.7673 16.9856 19.0085 16.6846 19.0085C16.3836 19.0085 16.1406 18.7673 16.1406 18.4696C16.1406 18.1729 16.3836 17.9316 16.6846 17.9316Z" stroke-width="1.5" stroke-linecap="round" stroke-linejoin="round"/>
  </symbol>

  <symbol id="subscrip" viewBox="0 0 15 15">
    <path d="M9.31801 14.3001C9.05868 14.3001 8.81931 14.1616 8.70237 13.9406L6.66079 10.0822C6.54867 9.87032 6.56793 9.61682 6.71031 9.42117L10.0059 5.20007L5.53819 8.31357C5.33115 8.44877 5.06288 8.46567 4.83864 8.36037L0.756163 6.43182C0.511284 6.31547 0.362017 6.07302 0.37715 5.81432C0.391595 5.55562 0.568376 5.32942 0.825638 5.24037L13.8951 0.690373C14.1461 0.603923 14.4288 0.660473 14.6194 0.840523C14.8092 1.01927 14.8711 1.28707 14.7783 1.52497L9.96322 13.875C9.8683 14.1181 9.62961 14.2851 9.35584 14.2988C9.34346 14.2994 9.33039 14.3001 9.31801 14.3001Z"/>
  </symbol>

  <symbol id="facebook" viewBox="0 0 10 21">
    <path d="M2.54678 20.5263V10.8948H0V7.42695H2.54678V4.46499C2.54678 2.13745 4.05118 0 7.51762 0C8.92113 0 9.95896 0.13455 9.95896 0.13455L9.87718 3.3729C9.87718 3.3729 8.81876 3.3626 7.66377 3.3626C6.41371 3.3626 6.21344 3.93867 6.21344 4.89481V7.42695H9.97655L9.81281 10.8948H6.21344V20.5263H2.54678Z"/>
  </symbol>

  <symbol id="twitter" viewBox="0 0 21 17">
    <path d="M20.5263 1.98086C19.7715 2.30648 18.95 2.54082 18.1039 2.6321C18.9824 2.11021 19.6402 1.28571 19.954 0.313295C19.1297 0.80367 18.2266 1.14753 17.2849 1.32962C16.8913 0.908848 16.4153 0.573641 15.8865 0.344888C15.3577 0.116135 14.7874 -0.00126247 14.2113 1.02382e-05C11.8802 1.02382e-05 10.0054 1.88959 10.0054 4.20839C10.0054 4.534 10.0448 4.85962 10.109 5.17291C6.61845 4.99036 3.50534 3.3228 1.43568 0.769655C1.05857 1.41378 0.86095 2.14718 0.863383 2.89358C0.863383 4.35393 1.60589 5.6416 2.73816 6.39891C2.0709 6.37263 1.41926 6.18923 0.836248 5.86362V5.91542C0.836248 7.9604 2.2818 9.6551 4.20838 10.0449C3.84664 10.1388 3.47452 10.1869 3.10078 10.1879C2.82696 10.1879 2.56795 10.1608 2.30647 10.1238C2.8393 11.7914 4.39092 13.0026 6.23856 13.042C4.79301 14.1743 2.98237 14.8403 1.01633 14.8403C0.663572 14.8403 0.337953 14.828 0 14.7885C1.86491 15.9849 4.07763 16.6756 6.46057 16.6756C14.1965 16.6756 18.4295 10.2669 18.4295 4.70422C18.4295 4.52167 18.4295 4.33913 18.4172 4.15658C19.2362 3.55715 19.954 2.81464 20.5263 1.98086Z"/>
  </symbol>

  <symbol id="instagram" viewBox="0 0 20 20">
    <path d="M9.74756 6.49862C7.95723 6.49862 6.49618 7.95967 6.49618 9.75C6.49618 11.5403 7.95723 13.0014 9.74756 13.0014C11.5379 13.0014 12.9989 11.5403 12.9989 9.75C12.9989 7.95967 11.5379 6.49862 9.74756 6.49862ZM19.4993 9.75C19.4993 8.40359 19.5115 7.06938 19.4359 5.72541C19.3602 4.16435 19.0041 2.77891 17.8626 1.63739C16.7186 0.493433 15.3356 0.139757 13.7746 0.0641433C12.4282 -0.0114703 11.094 0.00072551 9.75 0.00072551C8.40359 0.00072551 7.06938 -0.0114703 5.72541 0.0641433C4.16435 0.139757 2.77892 0.495872 1.63739 1.63739C0.493433 2.78135 0.139757 4.16435 0.0641433 5.72541C-0.0114703 7.07182 0.00072551 8.40603 0.00072551 9.75C0.00072551 11.094 -0.0114703 12.4306 0.0641433 13.7746C0.139757 15.3356 0.495873 16.7211 1.63739 17.8626C2.78135 19.0066 4.16435 19.3602 5.72541 19.4359C7.07182 19.5115 8.40603 19.4993 9.75 19.4993C11.0964 19.4993 12.4306 19.5115 13.7746 19.4359C15.3356 19.3602 16.7211 19.0041 17.8626 17.8626C19.0066 16.7186 19.3602 15.3356 19.4359 13.7746C19.5139 12.4306 19.4993 11.0964 19.4993 9.75ZM9.74756 14.7527C6.97913 14.7527 4.74487 12.5184 4.74487 9.75C4.74487 6.98157 6.97913 4.74731 9.74756 4.74731C12.516 4.74731 14.7503 6.98157 14.7503 9.75C14.7503 12.5184 12.516 14.7527 9.74756 14.7527ZM14.9551 5.71077C14.3088 5.71077 13.7868 5.18879 13.7868 4.54242C13.7868 3.89604 14.3088 3.37407 14.9551 3.37407C15.6015 3.37407 16.1235 3.89604 16.1235 4.54242C16.1237 4.6959 16.0936 4.84792 16.035 4.98976C15.9763 5.13159 15.8903 5.26047 15.7817 5.369C15.6732 5.47753 15.5443 5.56358 15.4025 5.62223C15.2606 5.68087 15.1086 5.71096 14.9551 5.71077Z"/>
  </symbol>
  
</svg>
