<svg width="15" height="15" viewBox="0 0 15 15" fill="none" xmlns="http://www.w3.org/2000/svg">
<path d="M9.31801 14.3001C9.05868 14.3001 8.81931 14.1616 8.70237 13.9406L6.66079 10.0822C6.54867 9.87032 6.56793 9.61682 6.71031 9.42117L10.0059 5.20007L5.53819 8.31357C5.33115 8.44877 5.06288 8.46567 4.83864 8.36037L0.756163 6.43182C0.511284 6.31547 0.362017 6.07302 0.37715 5.81432C0.391595 5.55562 0.568376 5.32942 0.825638 5.24037L13.8951 0.690373C14.1461 0.603923 14.4288 0.660473 14.6194 0.840523C14.8092 1.01927 14.8711 1.28707 14.7783 1.52497L9.96322 13.875C9.8683 14.1181 9.62961 14.2851 9.35584 14.2988C9.34346 14.2994 9.33039 14.3001 9.31801 14.3001Z" fill="#FF6838"/>
</svg>
